<svg width="25" height="25" viewBox="0 0 25 25" fill="none" xmlns="http://www.w3.org/2000/svg">
<path d="M24.5001 12.77C24.5001 11.98 24.4286 11.23 24.306 10.5H12.7606V15.01H19.3711C19.0748 16.49 18.2063 17.74 16.919 18.59V21.5899H20.8628C23.1719 19.4999 24.5001 16.42 24.5001 12.77Z" fill="#4285F4"/>
<path d="M12.7606 24.5C16.0709 24.5 18.8398 23.42 20.8628 21.59L16.9189 18.59C15.8155 19.31 14.4158 19.75 12.7606 19.75C9.56262 19.75 6.85511 17.64 5.88451 14.79H1.81812V17.88C3.83082 21.8 7.96882 24.5 12.7606 24.5Z" fill="#34A853"/>
<path d="M5.8844 14.7901C5.629 14.0701 5.4962 13.3001 5.4962 12.5001C5.4962 11.7001 5.6392 10.9301 5.8844 10.2101V7.12012H1.818C0.980201 8.74012 0.5 10.5601 0.5 12.5001C0.5 14.4401 0.980201 16.2601 1.818 17.8801L5.8844 14.7901Z" fill="#FBBC05"/>
<path d="M12.7606 5.25C14.569 5.25 16.1833 5.86 17.4605 7.05L20.9547 3.63C18.8398 1.69 16.0709 0.5 12.7606 0.5C7.96882 0.5 3.83082 3.2 1.81812 7.12L5.88451 10.2099C6.85511 7.36 9.56262 5.25 12.7606 5.25Z" fill="#EA4335"/>
</svg>
